<svg width="1000" height="1000" viewBox="0 0 1000 1000" fill="none" xmlns="http://www.w3.org/2000/svg">
<circle cx="500" cy="500" r="500" fill="black"/>
<path d="M463.283 369.519C451.625 369.522 440.443 374.153 432.197 382.395C414.934 399.648 397.676 416.908 380.42 434.172C372.178 442.418 367.547 453.599 367.545 465.257C367.538 489.664 367.537 514.074 367.544 538.481C367.547 550.139 372.179 561.321 380.421 569.567C397.674 586.83 414.935 604.09 432.198 621.344C440.443 629.586 451.624 634.217 463.283 634.219C487.692 634.226 512.1 634.227 536.507 634.22C548.165 634.217 559.347 629.585 567.593 621.343C584.856 604.09 602.116 586.829 619.371 569.568C627.612 561.321 632.243 550.14 632.245 538.481C632.252 514.074 632.253 489.664 632.246 465.258C632.243 453.599 627.611 442.418 619.369 434.171C602.116 416.908 584.856 399.65 567.594 382.394C559.346 374.153 548.166 369.522 536.507 369.519C512.1 369.512 487.69 369.512 463.283 369.519Z" fill="white"/>
<path fill-rule="evenodd" clip-rule="evenodd" d="M588.517 180.011C616.704 180.019 643.738 191.217 663.675 211.143C705.412 252.857 747.143 294.588 788.857 336.326C808.784 356.261 819.981 383.293 819.993 411.482C820.002 470.495 820.005 529.506 819.988 588.515C819.98 616.703 808.783 643.736 788.857 663.674C747.143 705.411 705.411 747.142 663.673 788.856C643.738 808.783 616.705 819.98 588.516 819.992C529.509 820.003 470.493 820.004 411.484 819.987C383.296 819.979 356.262 808.782 336.325 788.856C294.588 747.142 252.863 705.413 211.143 663.672C191.216 643.737 180.019 616.705 180.013 588.518C179.996 529.508 179.995 470.492 180.012 411.483C180.02 383.295 191.217 356.262 211.144 336.324C252.858 294.587 294.589 252.856 336.327 211.142C356.262 191.216 383.295 180.019 411.481 180.012C470.497 179.998 529.507 179.995 588.517 180.011ZM645.032 316.089C663.517 323.752 678.205 338.441 685.868 356.926C701.91 395.625 717.943 434.332 733.963 473.04C741.617 491.529 741.617 512.301 733.966 530.792C717.94 569.5 701.911 608.205 685.869 646.903C678.206 665.389 663.517 680.077 645.032 687.74C606.334 703.782 567.626 719.815 528.919 735.835C510.43 743.489 489.658 743.489 471.167 735.838C432.462 719.815 393.755 703.782 355.057 687.74C336.571 680.077 321.883 665.389 314.22 646.903C298.178 608.205 282.148 569.5 266.125 530.789C258.472 512.301 258.472 491.529 266.125 473.04C282.145 434.332 298.178 395.625 314.22 356.926C321.883 338.441 336.571 323.752 355.057 316.089C393.755 300.047 432.462 284.014 471.17 267.994C489.658 260.341 510.43 260.341 528.918 267.994C567.629 284.018 606.333 300.047 645.032 316.089Z" fill="white"/>
</svg>
