<svg id="Layer_1" data-name="Layer 1" xmlns="http://www.w3.org/2000/svg" viewBox="0 0 71.73 71.73"><defs><style>.cls-1{fill:#ab8a00;}.cls-2{fill:#fceb8a;}.cls-3{fill:#f8d300;}.cls-4{fill:#e5b700;}.cls-5{fill:#ca9700;opacity:0.6;}.cls-6{fill:#fff;}.cls-7{fill:#ffe365;}.cls-8{fill:#f0c300;}</style></defs><circle class="cls-1" cx="35.87" cy="35.86" r="35.87"/><circle class="cls-2" cx="35.87" cy="35.86" r="35.3"/><circle class="cls-3" cx="35.87" cy="35.86" r="31.41"/><path class="cls-4" d="M35.87,6A29.9,29.9,0,1,1,6,35.86,29.94,29.94,0,0,1,35.87,6m0-1.51A31.41,31.41,0,1,0,67.28,35.86,31.42,31.42,0,0,0,35.87,4.45Z"/><path class="cls-5" d="M36.69,58.52c-4.48,0-6.83-.25-8.91-1.77-2.32-1.7-2.29-8.33-2.23-10.42a24.32,24.32,0,0,0-2.34-2.11,5.77,5.77,0,0,1-1.76-.85c-.28-.17-.55-.32-.73-.41a.28.28,0,0,0-.13,0,1.29,1.29,0,0,0-.25,0A1.73,1.73,0,0,1,20,43a.89.89,0,0,1-.86-.61,4.35,4.35,0,0,0-.38-.39,1.37,1.37,0,0,1-.59-.81,1,1,0,0,1,.14-.8A2.21,2.21,0,0,1,17.42,39,2,2,0,0,1,18,37.38a4.42,4.42,0,0,0,.58-1,.83.83,0,0,1,.72-.52h0a.84.84,0,0,1,.74.43,4.11,4.11,0,0,1,.46,2,.41.41,0,0,1,.07-.11,1.09,1.09,0,0,1,1.78,0l.17.16c.19.17.47.43.81.8a5.58,5.58,0,0,1,1.19,2l0,.08a1.29,1.29,0,0,0,.42.65c.16.09.52.34.91.62.09-.86.19-1.76.29-2.64.14-1.18.26-2.31.35-3.17h-.12a3.79,3.79,0,0,1-.58,0h-.27l-.2,0h0l-.11,0H25l-.21,0a.82.82,0,0,1-.59-.51l0-.1a.83.83,0,0,1,0-.15,1.64,1.64,0,0,1,0-.18l-.25.17a3.45,3.45,0,0,0-.57.53h0l-.06.07-.19.22,0,0h0l-.13.12-.06.05a1.41,1.41,0,0,1-.68.23H22a1,1,0,0,1-.35-.1.88.88,0,0,1-.23-.14,2.08,2.08,0,0,1-.17-.18,1.4,1.4,0,0,1-.1-.16l0-.08a.58.58,0,0,1-.07-.21v0a2.06,2.06,0,0,1,0-.33v-.39a.91.91,0,0,1,0-.17v-.11a1.5,1.5,0,0,1,0-.22l0-.15a4.47,4.47,0,0,1,.09-.45A14.16,14.16,0,0,1,21.65,33a6.9,6.9,0,0,1-1.58-.18l-.36-.1h-.05l-.1,0-.27-.09h-.05l-.14-.06L19,32.43h0l-.08,0,0,0h0a1,1,0,0,1-.59-.6.89.89,0,0,1,0-.62c0-.05,0-.11.05-.16l0-.07a5.76,5.76,0,0,1,.59-1.39h0l-.07,0a2,2,0,0,1-.28-.1l-.07,0c-.16-.07-.34-.14-.52-.24a5.8,5.8,0,0,1-.51-.29l-.08-.06A7.53,7.53,0,0,1,15.43,27a.39.39,0,0,1-.08-.1l-.07-.1-.06-.08-.07-.12L15,26.3l0-.06a.83.83,0,0,1,.6-1.28l.1,0,.32-.05.51-.06.34,0c.28,0,.56-.07.87-.09l.63,0,.49,0h1a4.78,4.78,0,0,1,.48-.39l0,0c.12-.08.24-.17.37-.24l.14-.09.05,0,.25-.12.09,0h0a6,6,0,0,1,.95-.33l0-.12,0-.13,0-.08,0-.19s0-.31,0-.31a.85.85,0,0,1,.18-.62.83.83,0,0,1,.65-.31H23l.47,0h.24l-.12-.1a.85.85,0,0,1-.32-.42.81.81,0,0,1,.36-1l.15-.09.2-.12.14-.09.06,0,.13-.08.5-.37.5-.39.25-.21.12-.1,0,0,.14-.12a4.17,4.17,0,0,1,.44-.29,3.48,3.48,0,0,1-.25-.68,3.1,3.1,0,0,1-.1-.56v-.13s0-.11,0-.12a.34.34,0,0,1,0-.1v-.15a.85.85,0,0,1,.18-.47,1,1,0,0,1,.23-.21l0,0,.11-.07,0,0a5.78,5.78,0,0,1,1.83-.78,4.89,4.89,0,0,1,1.15-.14,4.69,4.69,0,0,1,.84.08l0-.07a1.55,1.55,0,0,1-.08-.23l0-.1a.89.89,0,0,1,.11-.73.94.94,0,0,1,.53-.34h0l.42-.08.15,0h.1l.25,0,.45,0h.08a7.33,7.33,0,0,1,3.47.85,7,7,0,0,1,1.5,1.06l.2.19c.06.06.12.11.16.16l0,0a.08.08,0,0,1,0,0l.09.11.13.16,0,0,.18-.14.07-.06.2-.13a5.1,5.1,0,0,1,2.18-.79l.16,0,.17,0h.27l.38,0,.3,0,.08,0,.22-.14a.82.82,0,0,1,1.07.13.83.83,0,0,1,.21.52l0,.33v.22a1.09,1.09,0,0,1,0,.18v.08a2,2,0,0,1,0,.25v0c0,.1,0,.17,0,.25v0l-.06.29c0,.19-.09.38-.15.58a7.81,7.81,0,0,1,1.36-.12h.19a7.34,7.34,0,0,1,3.45,1,8.47,8.47,0,0,1,.75.47l.33.25.11.09a.83.83,0,0,1,.28,1l-.09.23a.37.37,0,0,1,0,.11l0,.05a2.35,2.35,0,0,0-.1.22,6.64,6.64,0,0,1-1,1.45,12.85,12.85,0,0,1,1.89,1.4A10.37,10.37,0,0,1,52,25.42a5.59,5.59,0,0,1,.9.3,6.19,6.19,0,0,1,.58.28l0,0,.09,0,.11.07.11.08a.79.79,0,0,1,.3.35.87.87,0,0,1,0,.69l0,.08a1,1,0,0,0-.08.18l-.09.2a4.77,4.77,0,0,1-1.25,1.63l.34.12.34.14,0,0,.1.05.26.12,0,0,.13.07.14.08h0l.07.05,0,0h0a1,1,0,0,1,.51.67.93.93,0,0,1-.1.61l-.07.15,0,.07A6.27,6.27,0,0,1,53.73,33a6.21,6.21,0,0,1-1.24,1.11,6.44,6.44,0,0,1-1.75.84c.13.22.25.45.36.68l.24.52.09.22a.82.82,0,0,1,0,.65.84.84,0,0,1-.43.46l-.34.15-.19.08-.33.12a11.18,11.18,0,0,1-1.31.39,7.51,7.51,0,0,1-1.42.19h-.37c0,.48.11,1,.17,1.5.14,1.26.28,2.55.4,3.72a3.07,3.07,0,0,1,.68-.2c.49-.07.66-.17.81-.43a3.76,3.76,0,0,1,1.74-1.82,3.15,3.15,0,0,0,.87-.53,1.38,1.38,0,0,1,1-.56.88.88,0,0,1,.85,1.07,3.57,3.57,0,0,1-.25.82,10.42,10.42,0,0,0,.84-.69c.14-.12.27-.24.4-.34l.39-.3a3.2,3.2,0,0,1,3-1.89h.43l.15,0a.87.87,0,0,1,.63-.28.85.85,0,0,1,.43.12.82.82,0,0,1,.29,1.11,6,6,0,0,1-1.78,2,6.65,6.65,0,0,1,1.35.36.82.82,0,0,1,.37,1.28,2.89,2.89,0,0,1-2.19,1.09h0a3.1,3.1,0,0,1-1.88-.69.55.55,0,0,0-.23,0,.83.83,0,0,0-.22,0c-.54.14-1.3.4-1.5.47l-.24.15a1.61,1.61,0,0,1-1.6,1.09,2.71,2.71,0,0,1-.68-.09,1.76,1.76,0,0,0-.46-.06,2.33,2.33,0,0,0-1.44.52l-.38.3c-.33.32-.75.71-1.11,1,0,2.65-.16,8.08-2.25,9.6S41.17,58.52,36.69,58.52ZM20.84,40a.87.87,0,0,1,.59.24l.19.19,0,0a2.33,2.33,0,0,0-.47-.48,2.15,2.15,0,0,1-.7-.83,1.15,1.15,0,0,1-.06-.17,4.4,4.4,0,0,1-.26.92,2.69,2.69,0,0,0,.13.32A.84.84,0,0,1,20.7,40Z"/><polygon class="cls-6" points="45.09 37.51 45.09 37.51 45.09 37.51 45.09 37.51 45.09 37.51"/><path class="cls-7" d="M56.42,42.16l-.66-.34c-.46-.21-.59,0-.41-.26s.43-.48.75-.81c1.68.37,3-2,3-2C58.86,39.14,58,39,58,39a2.37,2.37,0,0,0-2.41,1.58l-.57.43a15.42,15.42,0,0,1-1.66,1.32c-.85.55-1.34.62-1.68.5a1.18,1.18,0,0,0-.56,0c.16-.41.44-1,.76-1.06.52-.17.79-1.14.83-1.36s-.26,0-.38.16a3.63,3.63,0,0,1-1.22.79,3,3,0,0,0-1.3,1.44,1.73,1.73,0,0,1-1.42.85,5.33,5.33,0,0,0-1.46.67h0v-.08c-.2-2.17-.57-5.23-.79-7.32,0-.24-.05-.48-.08-.69-.06-.66-.1-1.16-.1-1.42,0-1.1-1.38-.81-1.38-.81h-.71a7.72,7.72,0,0,1-.07.88h0a.35.35,0,0,1,.17,0,2.19,2.19,0,0,1,.29.16l.13.1a1.53,1.53,0,0,1,.15.13,1.21,1.21,0,0,1,.16.16,3.13,3.13,0,0,1,.26.35l.1.19a3.07,3.07,0,0,1,.11.36l0,.19a1.21,1.21,0,0,1,0,.19,1.34,1.34,0,0,1,0,.2.38.38,0,0,1,0,.1v0a.41.41,0,0,1,0,.07,2.14,2.14,0,0,1-.08.32v0h0s0,0,0,0H45l-.17,0-.23,0-.19,0a2.84,2.84,0,0,1-.7-.3,1.86,1.86,0,0,1-.28-.21c-.18.78-.34,1.39-.34,1.39s0-.47,0-1.72c0,0,0-.06,0-.09s-.1-.18-.14-.27l-.09,0,0,.06a2,2,0,0,1-.45.4l-.2.12-.19.08-.14.05-.06,0-.18,0-.19,0H41l-.3-.05-.15,0-.07,0s0,0,0-.06l.14-.28.07-.13,0-.07,0,0,.18-.28a5,5,0,0,1,.94-1,3.82,3.82,0,0,1,.64-.4h0a.23.23,0,0,1,.18.09.16.16,0,0,1,0,.09l.07.32.08,0c-.07-.42-.14-.8-.19-1H39.82l-.5,1-.06-1H36.13L35,38,34.48,34l-3.75,0c0,1.09-.09,2.92-.16,3.14A16.18,16.18,0,0,1,29.71,34h-.89s-1-.21-1.3.41a1,1,0,0,0-.08.4c0,.12,0,.3,0,.52-.11,1.57-.59,5.35-.87,8.16-.62-.48-1.73-1.29-2-1.43A2.08,2.08,0,0,1,23.76,41a5.07,5.07,0,0,0-1-1.83c-.63-.67-1-1-1.09-1.09s-.54-.14-.39.23,1.08.82,1.22,1.45.28,1.2.28,1.2.17.4,0,.5l-.15.11a6.31,6.31,0,0,1-.91-.27C21.3,41.1,21,41.1,21,41v-.5l-.19-.18-.31.66a6.17,6.17,0,0,1-.65-.33,4.16,4.16,0,0,1-.54-1.1l-.05-.27a3.67,3.67,0,0,0,0-3.18,5.24,5.24,0,0,1-.74,1.31c-.36.38-.69,1.33.67,2.08a2.91,2.91,0,0,0,.16.91l-.25-.11s-.23,0-.18.18a.63.63,0,0,0,.29.34s.64.57.66.78.57-.23,1.19.08a12.51,12.51,0,0,0,2.32,1.19,18.63,18.63,0,0,1,3,2.6c-.16,3.43.15,8.82,1.87,10.07,1.93,1.41,4.2,1.62,8.42,1.62s6.5-.21,8.43-1.62c1.59-1.16,2-5.87,1.9-9.29.39-.34.95-.87,1.39-1.29l.41-.34A3.14,3.14,0,0,1,51.45,44c.94.25,1.25-.24,1.3-.55s.35-.38.67-.55c0,0,1-.35,1.63-.52a1.41,1.41,0,0,1,1.11.12,2,2,0,0,0,3-.21C57.53,41.66,56.77,41.91,56.42,42.16ZM32.08,46a1.72,1.72,0,1,1,1.71-1.71A1.71,1.71,0,0,1,32.08,46Zm9.23,0A1.72,1.72,0,1,1,43,44.26,1.71,1.71,0,0,1,41.31,46Z"/><path class="cls-8" d="M27.52,34.41c.29-.62,1.3-.41,1.3-.41h.89a16.18,16.18,0,0,0,.86,3.14c.07-.22.13-2.05.16-3.14l3.75,0L35,38,36.13,34h3.13l.06,1,.5-1h2.89c0,.24.12.62.19,1l-.08,0-.07-.32a.16.16,0,0,0,0-.09.23.23,0,0,0-.18-.09h0a3.82,3.82,0,0,0-.64.4,5,5,0,0,0-.94,1l-.18.28,0,0,0,.07-.07.13-.14.28s0,0,0,.06l.07,0,.15,0,.3.05h.4l.19,0,.18,0,.06,0,.14-.05.19-.08.2-.12a2,2,0,0,0,.45-.4l0-.06.09,0c0,.09.09.18.14.27s0,.06,0,.09c0,1.25,0,1.72,0,1.72s.16-.61.34-1.39a1.86,1.86,0,0,0,.28.21,2.84,2.84,0,0,0,.7.3l.19,0,.23,0,.17,0h.08s0,0,0,0h0v0a2.14,2.14,0,0,0,.08-.32.41.41,0,0,0,0-.07v0a.38.38,0,0,0,0-.1,1.34,1.34,0,0,0,0-.2,1.21,1.21,0,0,0,0-.19l0-.19a3.07,3.07,0,0,0-.11-.36L45,35.8a3.13,3.13,0,0,0-.26-.35,1.21,1.21,0,0,0-.16-.16,1.53,1.53,0,0,0-.15-.13l-.13-.1A2.19,2.19,0,0,0,44,34.9a.35.35,0,0,0-.17,0h0a7.72,7.72,0,0,0,.07-.88h.71s1.38-.29,1.38.81c0,.26,0,.76.1,1.42,0,.21.05.45.08.69a2,2,0,0,1,.43,0l.27.06.11,0h.46a6.69,6.69,0,0,0,1.27-.17c.41-.1.81-.22,1.21-.36l.29-.12.17-.07.28-.12,0,0h0s0,0,0,0l0-.07-.06-.14-.1-.21-.13-.29a9,9,0,0,0-1-1.57h0a6.59,6.59,0,0,0,2.63-1,5.09,5.09,0,0,0,1.06-1,5,5,0,0,0,.75-1.22l.11-.27c.1-.12-.07-.16-.15-.22l-.07-.05-.06,0-.08,0L53.43,30a3.13,3.13,0,0,0-.32-.15l-.33-.14a5.85,5.85,0,0,0-1.37-.34l-.39,0a2.7,2.7,0,0,0-.08-.39,4.28,4.28,0,0,0,.9-.47,4,4,0,0,0,1.39-1.63l.06-.13.1-.22,0-.06v0s0,0,0,0l-.1-.07-.11-.07-.06,0,0,0a4.44,4.44,0,0,0-.49-.24,4.62,4.62,0,0,0-1-.31h-.07a9.82,9.82,0,0,0-1.83-2.18,12.82,12.82,0,0,0-2.28-1.6l-.25-.45a4,4,0,0,0,.53-.48,5.73,5.73,0,0,0,.93-1.32l.09-.18,0-.06a.2.2,0,0,0,0-.08l.07-.18v0h0l0,0-.08-.06-.14-.1-.16-.12c-.22-.15-.44-.3-.67-.43a6.52,6.52,0,0,0-3.07-.87,7.14,7.14,0,0,0-3,.62l-.07,0a5.33,5.33,0,0,0,.62-1.12,5.87,5.87,0,0,0,.28-.93c0-.08,0-.16,0-.24l0-.24a1.94,1.94,0,0,0,0-.24V14.5h0l-.12.08-.14.09-.11,0-.12.05-.05,0a3,3,0,0,1-.43.06l-.46,0h-.37l-.12,0a4.33,4.33,0,0,0-1.83.65l-.2.14-.19.16c-.13.1-.24.23-.36.34s-.22.28-.32.42a2.63,2.63,0,0,0-.12-.24l-.17-.31-.2-.29-.16-.22L37,15.46c0-.05-.09-.1-.15-.15l-.19-.19a6.51,6.51,0,0,0-4.48-1.68h-.41l-.2,0h-.1l-.13,0-.37.07H31s0,0,0,0v0l0,.09.06.19.15.44c.09.26.19.5.3.75a6.66,6.66,0,0,0,.33.72l-.1-.08-.13-.08-.25-.16a2.1,2.1,0,0,0-.26-.13l-.27-.12a4,4,0,0,0-2.33-.14,5.07,5.07,0,0,0-1.57.67l-.05,0-.08.06-.08.06V16a.34.34,0,0,0,0,.1v.18a3,3,0,0,0,.08.43,2.92,2.92,0,0,0,.35.81,3,3,0,0,0,.27.35,1.14,1.14,0,0,0,.15.16l0,0a2.29,2.29,0,0,0-1.27.49l-.15.11-.13.11-.25.22-.53.41-.54.39-.14.1-.07,0-.14.09-.3.18-.07,0s0,0,.05.05l.13.1.26.19.18.12.3.18c.19.12.4.23.6.33l.16.07-.24.17a5.64,5.64,0,0,1-1.64.41h-.42l-.4,0h-.1s0,0,0,0v.07l0,.21c0,.07,0,.15,0,.22l0,.12a1.42,1.42,0,0,0,.05.22l.15.44c.05.1.09.21.15.31l-.5.05a5.32,5.32,0,0,0-1.25.38l-.3.14-.16.1a2.7,2.7,0,0,0-.33.22,3.42,3.42,0,0,0-.43.35l-.2.22h-.08l-.29,0H18.9c-.2,0-.39,0-.58,0l-.58,0a11,11,0,0,0-1.14.13l-.29,0-.24,0-.27,0-.13,0s0,0,0,0l0,.06a1.76,1.76,0,0,0,.14.23l.07.12,0,.06,0,.05.09.12a6.85,6.85,0,0,0,1.69,1.62c.17.1.33.21.51.3a4.25,4.25,0,0,0,.54.24,1.42,1.42,0,0,0,.29.1l.28.08.29.07.15,0,.15,0,.4,0a5.61,5.61,0,0,0-.72.89,4.74,4.74,0,0,0-.58,1.3s-.05.18-.07.28.09.15.18.21l.07,0,.06,0,.09,0,.16.06a2.24,2.24,0,0,0,.34.11l.34.09a6.11,6.11,0,0,0,1.41.17,5.53,5.53,0,0,0,.71,0l.36-.06.14,0c-.08.21-.17.43-.25.66a17.86,17.86,0,0,0-.61,2c0,.16-.07.34-.1.51l0,.27s0,.09,0,.13v.37a1.43,1.43,0,0,0,0,.23l0,.07,0,0a.09.09,0,0,0,.06,0,.12.12,0,0,0,.08,0,.54.54,0,0,0,.21-.08l.08-.08c.12-.13.21-.25.26-.29a4,4,0,0,1,.71-.66c.13-.09.26-.18.4-.26l.22-.1.11-.06.12,0a3.59,3.59,0,0,0,.8-.53,3.86,3.86,0,0,0-.11,1.27s0,.22,0,.27l0,.1h0l.16,0h.21l.17,0a4.15,4.15,0,0,0,.7,0,2.72,2.72,0,0,0,.62-.17l.51.16c0-.22,0-.4,0-.52A1,1,0,0,1,27.52,34.41Z"/></svg>